HIERARCHY
ROOT Hips
{
	OFFSET 0.00000 0.00000 0.00000
	CHANNELS 6 Xposition Yposition Zposition Zrotation Yrotation Xrotation 
	JOINT RightUpLegDummy
	{
		OFFSET 0 0 0
		CHANNELS 3 Zrotation Yrotation Xrotation
		JOINT RightUpLeg
		{
			OFFSET -3.52197 -3.41223 0.04002
			CHANNELS 3 Zrotation Yrotation Xrotation
			JOINT RightLeg
			{
				OFFSET 0.00006 -17.42390 1.60435
				CHANNELS 3 Zrotation Yrotation Xrotation
				JOINT RightFoot
				{
					OFFSET 0.06153 -16.50078 -1.63901
					CHANNELS 3 Zrotation Yrotation Xrotation
					JOINT RightToes
					{
						OFFSET 0.00298 -1.73825 3.34613
						CHANNELS 3 Zrotation Yrotation Xrotation
						End Site
						{
							OFFSET 0.00480 -0.05416 3.85043
						}
					}
				}
			}
		}
	}
	JOINT SpineDummy
	{
		OFFSET 0 0 0
		CHANNELS 3 Zrotation Yrotation Xrotation
		JOINT Spine
		{
			OFFSET 0.00000 4.68130 0.00000
			CHANNELS 3 Zrotation Yrotation Xrotation
			JOINT Spine1
			{
				OFFSET -0.00000 10.10138 0.05002
				CHANNELS 3 Zrotation Yrotation Xrotation
				JOINT HEadDummy
				{
					OFFSET 0 0 0
					CHANNELS 3 Zrotation Yrotation Xrotation
					JOINT Head
					{
						OFFSET -0.00000 3.43865 0.00438
						CHANNELS 3 Zrotation Yrotation Xrotation
						End Site
						{
							OFFSET -0.11417 5.02924 0.98962
						}
					}
				}
				JOINT LeftShoulder1Dummy
				{
					OFFSET 0 0 0
					CHANNELS 3 Zrotation Yrotation Xrotation
					JOINT LeftShoulder1
					{
						OFFSET 3.53937 -0.14262 -0.08662
						CHANNELS 3 Zrotation Yrotation Xrotation
						JOINT LeftArm
						{
							OFFSET 4.04833 -0.00133 0.12681
							CHANNELS 3 Zrotation Yrotation Xrotation
							JOINT LeftForeArm
							{
								OFFSET 10.33880 -0.01036 -0.55515
								CHANNELS 3 Zrotation Yrotation Xrotation
								JOINT LeftHand
								{
									OFFSET 8.69677 0.07543 0.40060
									CHANNELS 3 Zrotation Yrotation Xrotation
									End Site
									{
										OFFSET 5.28377 -0.21905 0.59205
									}
								}
							}
						}
					}
				}
				JOINT RightShoulderDummy
				{
					OFFSET 0 0 0
					CHANNELS 3 Zrotation Yrotation Xrotation
					JOINT RightShoulder
					{
						OFFSET -3.53937 -0.14262 -0.08660
						CHANNELS 3 Zrotation Yrotation Xrotation
						JOINT RightArm
						{
							OFFSET -4.04833 -0.00133 0.12683
							CHANNELS 3 Zrotation Yrotation Xrotation
							JOINT RightForeArm
							{
								OFFSET -10.37987 -0.01039 -0.55511
								CHANNELS 3 Zrotation Yrotation Xrotation
								JOINT RightHand
								{
									OFFSET -8.67398 0.07538 0.40058
									CHANNELS 3 Zrotation Yrotation Xrotation
									End Site
									{
										OFFSET -5.24810 -0.21916 0.59204
									}
								}
							}
						}
					}
				}
			}
		}
	}
	JOINT LeftUpLegDummy
	{
		OFFSET 0 0 0
		CHANNELS 3 Zrotation Yrotation Xrotation
		JOINT LeftUpLeg
		{
			OFFSET 3.52197 -3.41223 0.04002
			CHANNELS 3 Zrotation Yrotation Xrotation
			JOINT LeftLeg
			{
				OFFSET -0.00012 -17.42399 1.60337
				CHANNELS 3 Zrotation Yrotation Xrotation
				JOINT LeftFoot
				{
					OFFSET -0.09972 -16.50070 -1.63802
					CHANNELS 3 Zrotation Yrotation Xrotation
					JOINT LeftToes
					{
						OFFSET -0.01575 -1.73823 3.34611
						CHANNELS 3 Zrotation Yrotation Xrotation
						End Site
						{
							OFFSET 0.03150 -0.01868 3.85031
						}
					}
				}
			}
		}
	}
}
MOTION
Frames: 7
Frame Time: 0.033333
-13.2225 38.7000 71.3429 -176.2930 34.6994 177.6390 0.0000 0.0000 0.0000 -0.7487 -2.7652 -10.5562 -2.2076 -4.4132 20.3652 4.1300 -0.2197 -5.8825 0.0000 -0.0000 -0.0000 0.0000 0.0000 0.0000 1.4675 -0.4500 8.8378 4.5874 -1.2787 -0.1786 -0.0000 0.0000 -0.0000 1.6499 14.4790 -6.5067 -0.0000 0.0000 -0.0000 -32.6714 -2.8417 2.4551 -41.5566 -12.5129 -24.2097 -7.4087 5.2078 46.4140 14.8228 -3.0598 -1.0566 -0.0000 0.0000 -0.0000 34.9758 5.1828 3.5614 38.8408 2.4268 -14.5767 10.4462 7.7525 18.4127 -11.5905 2.1071 -0.7305 0.0000 0.0000 0.0000 18.1737 4.3495 -1.0599 2.6625 2.7044 34.3467 -5.4628 0.5153 -0.3126 0.0000 0.0000 -0.0000
-12.4179 38.6654 71.4331 -176.5550 35.5732 176.9510 0.0000 0.0000 0.0000 0.1393 -2.6524 -9.9773 -1.7517 -3.7795 21.4916 2.4613 -0.1179 -7.0726 0.0000 -0.0000 -0.0000 0.0000 0.0000 0.0000 2.5077 -0.1755 9.4875 3.3295 -0.7123 -0.4369 -0.0000 0.0000 -0.0000 1.5238 14.2669 -5.9011 -0.0000 0.0000 -0.0000 -33.0967 -2.7726 2.4551 -41.9647 -12.4660 -23.8408 -7.4176 5.1520 48.3990 15.3009 -3.5782 -1.1560 -0.0000 0.0000 -0.0000 34.9413 5.1713 3.5536 38.7418 2.1637 -10.5092 9.9327 10.6851 14.5246 -11.3877 2.3401 -0.7347 0.0000 0.0000 0.0000 17.2762 3.6202 -3.9987 7.0630 6.4240 40.7562 -0.0875 0.0012 3.9259 0.0000 0.0000 -0.0000
-11.6507 38.6622 71.4985 -176.8390 36.9190 176.1930 0.0000 0.0000 0.0000 1.1002 -2.0976 -9.0830 -1.6111 -3.4531 22.0540 0.8041 -0.0528 -7.9283 0.0000 -0.0000 -0.0000 0.0000 0.0000 0.0000 3.5229 0.2241 10.0112 2.1251 -0.0372 -0.3192 -0.0000 0.0000 -0.0000 1.2771 14.3525 -5.7076 -0.0000 0.0000 -0.0000 -33.2340 -2.6426 2.4129 -43.1496 -12.3213 -23.0874 -7.8279 5.1821 47.1835 16.3980 -3.5172 -1.2335 -0.0000 0.0000 -0.0000 34.7532 5.1514 3.5289 38.3600 2.7325 -7.7912 9.5329 11.9776 12.7382 -11.2380 2.4160 -0.7341 0.0000 0.0000 0.0000 16.0363 3.2055 -6.4807 8.9080 6.8607 45.8275 2.8876 -0.4128 4.1519 0.0000 0.0000 -0.0000
-10.8942 38.6813 71.5385 -177.4360 38.1077 175.3530 0.0000 0.0000 0.0000 1.7722 -1.7737 -8.0151 -1.5098 -3.1818 22.2371 -0.9685 -0.0074 -8.4814 0.0000 -0.0000 -0.0000 0.0000 0.0000 0.0000 3.8150 0.5450 10.2835 1.4970 0.4279 -0.0958 -0.0000 0.0000 -0.0000 1.0294 14.7176 -5.5746 -0.0000 0.0000 -0.0000 -33.3905 -2.5538 2.3876 -44.5212 -12.0177 -22.1289 -8.5802 5.2812 43.2203 16.3499 -3.5294 -1.2315 -0.0000 0.0000 -0.0000 34.5585 5.1259 3.5015 37.7514 3.7398 -7.0547 9.5997 11.9597 13.2180 -11.3098 2.3237 -0.7326 0.0000 0.0000 0.0000 14.1239 2.3052 -8.8942 7.3908 4.9176 49.2383 3.2490 -0.3703 1.2628 0.0000 0.0000 -0.0000
-10.1593 38.6738 71.5456 -178.0220 39.0596 174.7330 0.0000 0.0000 0.0000 2.3620 -1.6252 -7.1921 -1.2774 -2.7335 22.5983 -2.9126 0.0186 -9.2430 0.0000 -0.0000 -0.0000 0.0000 0.0000 0.0000 3.8511 0.7989 10.3551 1.2190 0.7496 -0.0265 -0.0000 0.0000 -0.0000 0.8037 15.0514 -5.2388 -0.0000 0.0000 -0.0000 -33.7243 -2.5481 2.4058 -45.6450 -12.0068 -21.0070 -9.3069 5.3499 40.1406 15.6449 -3.7970 -1.2105 -0.0000 0.0000 -0.0000 34.4793 5.1061 3.4866 37.1311 4.5601 -7.3709 9.7816 11.5724 14.1520 -11.5734 2.1879 -0.7378 0.0000 0.0000 0.0000 11.7676 0.3900 -11.5148 4.9159 2.8835 51.3099 2.5994 -0.2093 -1.6725 0.0000 0.0000 -0.0000
-9.4403 38.6486 71.5301 -178.3820 40.1143 174.4770 0.0000 0.0000 0.0000 3.0585 -1.4636 -6.6522 -0.8946 -2.0609 23.0770 -4.5360 0.0062 -10.2398 0.0000 -0.0000 -0.0000 0.0000 0.0000 0.0000 3.9886 1.1214 10.2132 1.0338 1.1229 -0.0144 -0.0000 0.0000 -0.0000 0.6677 15.1632 -4.7353 -0.0000 0.0000 -0.0000 -33.9669 -2.5666 2.4279 -46.5340 -12.6710 -19.8360 -9.6371 5.3242 41.0302 15.9969 -4.1875 -1.2911 -0.0000 0.0000 -0.0000 34.4591 5.0971 3.4811 36.7149 4.9840 -8.0303 9.8238 11.3442 14.5511 -11.7332 2.1631 -0.7459 0.0000 0.0000 0.0000 9.3860 -2.1751 -14.1932 3.8747 2.1389 52.0709 2.4426 -0.1515 -3.2869 0.0000 0.0000 -0.0000
-8.7290 38.6410 71.5171 -178.6270 41.3211 174.4400 0.0000 0.0000 0.0000 3.7573 -1.3354 -6.1049 -0.4289 -1.3548 23.2393 -5.4699 -0.0277 -11.0760 0.0000 -0.0000 -0.0000 0.0000 0.0000 0.0000 4.0496 1.4952 9.9177 1.0008 1.5141 0.0486 -0.0000 0.0000 -0.0000 0.6148 15.1934 -4.3068 -0.0000 0.0000 -0.0000 -33.9822 -2.5648 2.4282 -47.0464 -13.8133 -18.8667 -9.6311 5.2394 44.4136 17.4370 -4.4770 -1.4528 -0.0000 0.0000 -0.0000 34.4593 5.0999 3.4823 36.5370 5.2133 -8.7431 9.7940 11.2275 14.5300 -11.6479 2.2333 -0.7469 0.0000 0.0000 0.0000 7.3123 -4.8953 -16.6726 3.8530 2.2015 51.2688 2.9301 -0.1514 -4.3855 0.0000 0.0000 -0.0000
